<svg width="36" height="26" viewBox="0 0 36 26" fill="none" xmlns="http://www.w3.org/2000/svg">
<g clip-path="url(#clip0)">
<path d="M0.000106812 12.8049C0.000106812 5.7445 5.74461 0 12.805 0C19.8654 0 25.6099 5.7445 25.6099 12.8049C25.6099 16.5341 24.0062 19.8955 21.4536 22.2376L21.4657 22.2484L21.0504 22.5985C21.0234 22.6213 20.9941 22.64 20.967 22.6623C20.7463 22.8453 20.5177 23.019 20.2849 23.1871C20.2095 23.2416 20.134 23.296 20.0572 23.3491C19.8086 23.5205 19.5534 23.683 19.2926 23.8371C19.2358 23.8706 19.1786 23.9032 19.1213 23.9358C18.8358 24.0983 18.5444 24.2515 18.2459 24.3921C18.224 24.4024 18.2017 24.4117 18.1798 24.4219C17.2071 24.8741 16.1687 25.2061 15.0829 25.4021C15.0545 25.4072 15.026 25.4123 14.9972 25.4175C14.6601 25.4757 14.3192 25.5222 13.9742 25.5534C13.9323 25.5571 13.8904 25.5595 13.848 25.5632C13.5044 25.5916 13.157 25.6098 12.805 25.6098C12.4562 25.6098 12.1121 25.5916 11.7704 25.5641C11.727 25.5604 11.6837 25.5581 11.6404 25.5543C11.2982 25.5231 10.9602 25.478 10.6263 25.4207C10.5974 25.4156 10.5681 25.4105 10.5392 25.4049C9.46966 25.213 8.44621 24.8885 7.48607 24.448C7.45068 24.4317 7.41483 24.4163 7.37944 24.3996C7.09215 24.2645 6.81137 24.1188 6.53618 23.9637C6.46773 23.9251 6.39975 23.886 6.33177 23.8459C6.08126 23.6983 5.83494 23.5442 5.59561 23.3803C5.50946 23.3216 5.42518 23.2597 5.33997 23.1982C5.13556 23.0511 4.93488 22.8993 4.73977 22.7405C4.69647 22.7056 4.64991 22.6753 4.60753 22.6395L4.18148 22.2837L4.19405 22.273C1.61911 19.93 0.000106812 16.5532 0.000106812 12.8049ZM24.6786 12.8049C24.6786 6.25763 19.3522 0.931264 12.805 0.931264C6.25773 0.931264 0.931372 6.25763 0.931372 12.8049C0.931372 16.333 2.4796 19.5049 4.93068 21.6812C5.06758 21.5867 5.20541 21.502 5.34649 21.4312L9.289 19.4602C9.64288 19.2832 9.86266 18.9275 9.86266 18.5322V17.1553C9.77139 17.0426 9.67501 16.915 9.57536 16.7749C9.06503 16.0541 8.65574 15.2522 8.35727 14.3894C7.76731 14.1091 7.38643 13.5215 7.38643 12.858V11.2073C7.38643 10.8036 7.5345 10.412 7.79944 10.1042V7.93111C7.77523 7.68898 7.68955 6.32561 8.67623 5.20064C9.53439 4.22095 10.9234 3.72506 12.805 3.72506C14.6866 3.72506 16.0756 4.22095 16.9337 5.20018C17.9204 6.32514 17.8347 7.68945 17.8105 7.93064V10.1037C18.075 10.4115 18.2235 10.8031 18.2235 11.2068V12.8575C18.2235 13.3702 17.9935 13.8484 17.5996 14.171C17.2224 15.6485 16.4462 16.7669 16.1594 17.146V18.4935C16.1594 18.8735 16.3666 19.2227 16.7005 19.4052L20.3822 21.4135C20.4996 21.4773 20.616 21.5518 20.7324 21.6351C23.1532 19.4597 24.6786 16.3074 24.6786 12.8049Z" fill="white"/>
</g>
<path d="M35.3535 13.1584C35.5487 12.9632 35.5487 12.6466 35.3535 12.4513L32.1715 9.26934C31.9762 9.07407 31.6597 9.07407 31.4644 9.26934C31.2691 9.4646 31.2691 9.78118 31.4644 9.97644L34.2928 12.8049L31.4644 15.6333C31.2691 15.8286 31.2691 16.1451 31.4644 16.3404C31.6597 16.5357 31.9762 16.5357 32.1715 16.3404L35.3535 13.1584ZM28.1707 13.3049L34.9999 13.3049L34.9999 12.3049L28.1707 12.3049L28.1707 13.3049Z" fill="white"/>
<defs>
<clipPath id="clip0">
<rect width="25.6098" height="25.6098" fill="white" transform="matrix(-1 0 0 1 25.6099 0)"/>
</clipPath>
</defs>
</svg>
